#!OML:ASF I:\golf\golf\golf 2\Subject 1\2002-09-07\Subject1.ASF
:FULLY-SPECIFIED
:DEGREES
229
root -8.03604 17.5202 1.69864 -4.56745 55.9355 -22.0833
lowerback 8.40669 -10.0341 -11.8683
upperback 1.10593 -14.3325 -0.196757
thorax -0.644968 -7.12702 7.11491
lowerneck -6.58845 20.1706 3.25236
upperneck 15.5566 29.9089 -13.3025
head 8.48653 13.39 -1.49419
rclavicle 8.90555e-014 0
rhumerus 27.2873 -24.8942 -60.2016
rradius 107.657
rwrist -9.94461
rhand -61.8431 29.2182
rfingers 7.12502
rthumb -33.9046 2.41331
lclavicle 8.90555e-014 0
lhumerus 111.929 -42.6029 43.9535
lradius 37.249
lwrist -0.770976
lhand -17.8605 0.839772
lfingers 7.12502
lthumb -171.595 -149.347
rfemur -37.7165 10.777 26.4471
rtibia 34.7717
rfoot -8.80823 15.9508
rtoes 13.8236
lfemur -12.0619 16.8617 6.00854
ltibia 25.8908
lfoot -13.4338 17.0889
ltoes -15.8296
230
root -8.0505 17.5253 1.63524 -5.03653 56.5374 -22.7565
lowerback 8.39379 -9.63114 -11.4158
upperback 1.15369 -13.7557 -0.484217
thorax -0.881086 -6.8208 6.6086
lowerneck -5.50099 19.6121 4.92093
upperneck 15.4347 29.0342 -13.7379
head 8.49292 13.1041 -2.01832
rclavicle 1.39547e-013 4.45278e-014
rhumerus 25.6124 -25.8873 -60.4902
rradius 107.419
rwrist -11.1605
rhand -61.7452 29.7772
rfingers 7.12502
rthumb -33.8117 2.95184
lclavicle 1.39547e-013 4.45278e-014
lhumerus 112.56 -44.1961 42.9891
lradius 36.9622
lwrist -0.733445
lhand -17.3386 1.21777
lfingers 7.12502
lthumb -171.091 -148.99
rfemur -37.8442 10.1129 26.5725
rtibia 34.4738
rfoot -8.68834 15.7376
rtoes 12.8221
lfemur -12.8715 17.2021 6.09998
ltibia 26.2747
lfoot -13.3766 16.0888
ltoes -16.4622
231
root -8.06481 17.5349 1.57127 -5.24176 57.198 -23.2426
lowerback 8.73201 -10.2133 -11.6368
upperback 1.2845 -14.5762 0.470841
thorax -0.460038 -7.28644 7.71215
lowerneck -7.15657 20.1781 2.18526
upperneck 15.3729 30.0181 -13.4133
head 8.39487 13.3665 -1.36143
rclavicle -1.04958e-013 1.90833e-014
rhumerus 27.652 -24.0218 -61.9895
rradius 106.769
rwrist -12.2588
rhand -61.6942 30.1486
rfingers 7.12502
rthumb -33.7632 3.31257
lclavicle -1.04958e-013 1.90833e-014
lhumerus 110.209 -42.7978 44.854
lradius 36.3624
lwrist -1.50357
lhand -17.0152 1.26828
lfingers 7.12502
lthumb -170.779 -148.953
rfemur -38.0991 9.45667 26.5195
rtibia 34.1651
rfoot -8.48653 15.5101
rtoes 12.1649
lfemur -13.8405 17.6182 5.98991
ltibia 26.6806
lfoot -13.3906 15.0004
ltoes -16.5036
232
root -8.07883 17.5478 1.50904 -5.48045 57.9003 -23.707
lowerback 8.76524 -9.91215 -11.5438
upperback 1.20433 -14.1787 0.23811
thorax -0.730937 -7.06014 7.46039
lowerneck -5.99375 19.6594 4.0201
upperneck 15.5795 29.2086 -13.7232
head 8.51268 13.1066 -1.84595
rclavicle -1.94809e-014 6.36111e-014
rhumerus 25.8742 -24.4111 -62.5687
rradius 106.42
rwrist -12.3026
rhand -61.9829 29.515
rfingers 7.12502
rthumb -34.0375 2.73954
lclavicle -1.94809e-014 6.36111e-014
lhumerus 110.38 -44.3338 44.1136
lradius 35.9517
lwrist -1.45153
lhand -16.7637 1.32273
lfingers 7.12502
lthumb -170.537 -148.91
rfemur -38.284 8.66585 26.4918
rtibia 33.8507
rfoot -8.17909 15.4063
rtoes 12.1207
lfemur -14.8872 18.1276 5.78348
ltibia 27.1222
lfoot -13.1069 14.0725
ltoes -17.7675
233
root -8.09646 17.5594 1.43942 -5.65593 58.73 -24.0949
lowerback 9.16437 -10.3331 -11.8201
upperback 1.28963 -14.8022 0.967453
thorax -0.460154 -7.41308 8.38971
lowerneck -7.23672 19.9604 2.03417
upperneck 15.7753 29.7757 -13.2339
head 8.47316 13.2298 -1.30955
rclavicle 1.25632e-013 4.45278e-014
rhumerus 27.0342 -22.6671 -63.7568
rradius 105.673
rwrist -12.3982
rhand -62.1499 29.0213
rfingers 7.12502
rthumb -34.196 2.28128
lclavicle 1.25632e-013 4.45278e-014
lhumerus 108.69 -43.361 45.3035
lradius 35.2281
lwrist -1.81189
lhand -16.3296 1.37742
lfingers 7.12502
lthumb -170.118 -148.875
rfemur -38.4907 7.93777 26.3045
rtibia 33.5167
rfoot -7.93224 15.0826
rtoes 11.466
lfemur -16.0555 18.342 5.44553
ltibia 27.6056
lfoot -12.9293 13.2536
ltoes -18.7763
234
root -8.11759 17.5725 1.36764 -6.0436 59.6408 -24.7157
lowerback 9.4199 -10.1961 -11.6887
upperback 1.39237 -14.6292 0.9592
thorax -0.562511 -7.32283 8.36439
lowerneck -7.29768 19.6702 2.75853
upperneck 16.1506 29.3377 -13.0897
head 8.65394 13.0422 -1.37529
rclavicle 1.39149e-013 4.45278e-014
rhumerus 26.2137 -22.8507 -64.6741
rradius 105.291
rwrist -13.1228
rhand -62.189 28.913
rfingers 7.12502
rthumb -34.2332 2.18133
lclavicle 1.39149e-013 4.45278e-014
lhumerus 108.753 -44.1689 44.6782
lradius 34.82
lwrist -1.82542
lhand -15.6836 1.71659
lfingers 7.12502
lthumb -169.495 -148.566
rfemur -38.6843 7.33444 26.141
rtibia 33.1593
rfoot -7.85561 14.4939
rtoes 9.87241
lfemur -17.2881 18.478 5.18739
ltibia 28.1067
lfoot -12.9895 12.2831
ltoes -17.7608
235
root -8.13338 17.594 1.29534 -6.10774 60.484 -25.0376
lowerback 9.53468 -10.0739 -11.7603
upperback 1.52236 -14.4752 1.05735
thorax -0.4756 -7.25958 8.50969
lowerneck -7.62509 19.4333 3.21807
upperneck 16.4719 29.0322 -13.1131
head 8.86426 12.878 -1.41928
rclavicle 1.1609e-013 6.36111e-015
rhumerus 25.7475 -22.926 -65.7038
rradius 104.845
rwrist -13.998
rhand -62.1463 29.0842
rfingers 7.12502
rthumb -34.1927 2.34338
lclavicle 1.1609e-013 6.36111e-015
lhumerus 108.616 -44.7841 44.4064
lradius 34.3365
lwrist -1.98248
lhand -15.1933 2.01035
lfingers 7.12502
lthumb -169.022 -148.297
rfemur -38.9144 6.74776 25.8166
rtibia 32.7925
rfoot -7.64215 14.0259
rtoes 8.93205
lfemur -18.5387 18.7787 4.71683
ltibia 28.623
lfoot -13.0642 11.2472
ltoes -16.7515
236
root -8.14101 17.6177 1.21515 -5.31928 61.3211 -24.5654
lowerback 9.36103 -9.90422 -12.0011
upperback 1.62116 -14.2411 1.03685
thorax -0.274661 -7.15964 8.56175
lowerneck -7.91712 19.0834 3.57819
upperneck 16.7036 28.5551 -13.1451
head 9.00929 12.6406 -1.49487
rclavicle -4.92986e-014 -3.81667e-014
rhumerus 25.1644 -23.142 -66.6244
rradius 104.415
rwrist -14.9683
rhand -61.9708 29.7499
rfingers 7.12502
rthumb -34.026 2.97187
lclavicle -4.92986e-014 -3.81667e-014
lhumerus 108.534 -45.4782 44.069
lradius 33.9023
lwrist -2.13061
lhand -14.7874 2.27382
lfingers 7.12502
lthumb -168.63 -148.054
rfemur -39.3031 6.13096 25.0385
rtibia 32.4279
rfoot -7.33348 13.6086
rtoes 8.21722
lfemur -20.045 19.0977 3.65461
ltibia 29.1691
lfoot -12.7953 10.5927
ltoes -16.8981
237
root -8.15164 17.6354 1.13155 -4.75792 62.3713 -24.3818
lowerback 9.25048 -9.82332 -12.1379
upperback 1.66464 -14.1272 1.15254
thorax -0.130098 -7.11786 8.72091
lowerneck -7.99175 18.7464 3.66601
upperneck 16.7518 28.0842 -13.1757
head 9.01394 12.4218 -1.57641
rclavicle -1.85267e-013 -3.18055e-014
rhumerus 24.5322 -23.1426 -67.4317
rradius 103.975
rwrist -15.8498
rhand -61.8703 30.3357
rfingers 7.12502
rthumb -33.9305 3.53651
lclavicle -1.85267e-013 -3.18055e-014
lhumerus 108.231 -46.1373 44.0353
lradius 33.2639
lwrist -2.36503
lhand -14.6448 2.33925
lfingers 7.12502
lthumb -168.493 -147.997
rfemur -39.7247 5.32427 24.3815
rtibia 32.0849
rfoot -7.2434 13.0782
rtoes 6.45748
lfemur -21.8255 19.2646 2.58596
ltibia 29.7109
lfoot -12.21 10.0971
ltoes -17.0604
238
root -8.17117 17.6485 1.04573 -5.11562 63.6863 -25.1441
lowerback 9.42922 -9.88852 -11.9992
upperback 1.64797 -14.2228 1.49471
thorax -0.165589 -7.1724 9.04011
lowerneck -7.9094 18.4958 3.67248
upperneck 16.765 27.751 -13.2603
head 8.98899 12.2698 -1.66125
rclavicle 2.94201e-014 6.67916e-014
rhumerus 23.9877 -22.7349 -68.253
rradius 103.433
rwrist -16.4979
rhand -61.9192 30.1636
rfingers 7.12502
rthumb -33.977 3.37475
lclavicle 2.94201e-014 6.67916e-014
lhumerus 107.31 -46.8727 44.7821
lradius 32.3609
lwrist -2.81534
lhand -14.4162 2.29177
lfingers 7.12502
lthumb -168.272 -148.057
rfemur -40.082 4.31372 24.1439
rtibia 31.7702
rfoot -7.23845 12.4756
rtoes 4.47226
lfemur -23.5707 18.9705 1.99708
ltibia 30.2157
lfoot -11.8774 9.4152
ltoes -16.7528
